<svg width="186" height="109" viewBox="0 0 186 109" fill="none" xmlns="http://www.w3.org/2000/svg">
<g clip-path="url(#clip0_4_53)">
<path d="M53.0207 39.5868C53.0207 41.8298 53.2631 43.6485 53.6875 44.9822C54.1725 46.3159 54.7787 47.7709 55.6273 49.3471C55.9305 49.832 56.0517 50.317 56.0517 50.7414C56.0517 51.3476 55.688 51.9538 54.8999 52.5601L51.0808 55.1062C50.5352 55.47 49.9896 55.6518 49.5047 55.6518C48.8984 55.6518 48.2922 55.3487 47.686 54.8031C46.8373 53.8938 46.1099 52.9238 45.5037 51.9538C44.8975 50.9233 44.2913 49.7714 43.6245 48.3771C38.896 53.9544 32.9552 56.743 25.802 56.743C20.7098 56.743 16.6482 55.2881 13.6778 52.3782C10.7074 49.4683 9.19189 45.5884 9.19189 40.7386C9.19189 35.5857 11.0105 31.4027 14.7084 28.2503C18.4062 25.0979 23.3165 23.5217 29.5604 23.5217C31.6216 23.5217 33.7433 23.7036 35.9862 24.0067C38.2292 24.3098 40.5328 24.7948 42.9576 25.3404V20.9149C42.9576 16.3076 41.9877 13.0945 40.1084 11.2152C38.1686 9.33593 34.8951 8.42658 30.2273 8.42658C28.1055 8.42658 25.9232 8.66907 23.6802 9.21468C21.4373 9.76029 19.2549 10.4271 17.1332 11.2759C16.1633 11.7002 15.4358 11.9427 15.0115 12.064C14.5871 12.1852 14.284 12.2458 14.0416 12.2458C13.1929 12.2458 12.7685 11.6396 12.7685 10.3665V7.39599C12.7685 6.42603 12.8898 5.69855 13.1929 5.27419C13.496 4.84983 14.0416 4.42547 14.8902 4.00111C17.012 2.9099 19.558 2.00055 22.5284 1.27308C25.4989 0.48498 28.6511 0.121242 31.9853 0.121242C39.1991 0.121242 44.4731 1.75806 47.8679 5.0317C51.202 8.30534 52.8994 13.2764 52.8994 19.9449V39.5868H53.0207ZM28.4087 48.8014C30.4091 48.8014 32.4702 48.4377 34.6526 47.7102C36.8349 46.9828 38.7748 45.6491 40.4116 43.8304C41.3815 42.6785 42.1089 41.4054 42.4727 39.9505C42.8364 38.4956 43.0789 36.7375 43.0789 34.6763V32.1301C41.3209 31.7058 39.4416 31.342 37.5018 31.0996C35.5619 30.8571 33.6827 30.7358 31.8034 30.7358C27.7418 30.7358 24.7714 31.5239 22.7709 33.1607C20.7704 34.7976 19.8005 37.1012 19.8005 40.1324C19.8005 42.9816 20.528 45.1035 22.0435 46.5584C23.4984 48.074 25.6201 48.8014 28.4087 48.8014ZM77.0871 55.3487C75.9959 55.3487 75.2685 55.1669 74.7835 54.7425C74.2985 54.3788 73.8742 53.53 73.5105 52.3782L59.2646 5.51668C58.9009 4.30422 58.719 3.51613 58.719 3.09176C58.719 2.1218 59.204 1.57619 60.1739 1.57619H66.1147C67.2665 1.57619 68.0546 1.75806 68.4789 2.18242C68.9639 2.54616 69.3276 3.39488 69.6913 4.54672L79.8756 44.6791L89.3325 4.54672C89.6356 3.33426 89.9993 2.54616 90.4842 2.18242C90.9692 1.81868 91.8179 1.57619 92.9091 1.57619H97.7587C98.9105 1.57619 99.6986 1.75806 100.184 2.18242C100.669 2.54616 101.093 3.39488 101.335 4.54672L110.913 45.1641L121.401 4.54672C121.765 3.33426 122.189 2.54616 122.613 2.18242C123.098 1.81868 123.886 1.57619 124.977 1.57619H130.615C131.585 1.57619 132.131 2.06118 132.131 3.09176C132.131 3.39488 132.07 3.69799 132.009 4.06173C131.949 4.42547 131.828 4.91045 131.585 5.5773L116.975 52.4388C116.612 53.6513 116.187 54.4394 115.702 54.8031C115.217 55.1669 114.429 55.4093 113.399 55.4093H108.185C107.034 55.4093 106.246 55.2275 105.761 54.8031C105.276 54.3788 104.851 53.5907 104.609 52.3782L95.2127 13.2764L85.8771 52.3176C85.574 53.53 85.2102 54.3181 84.7253 54.7425C84.2403 55.1669 83.3916 55.3487 82.3005 55.3487H77.0871ZM154.985 56.9855C151.832 56.9855 148.68 56.6218 145.649 55.8943C142.618 55.1669 140.254 54.3788 138.678 53.4694C137.708 52.9238 137.041 52.3176 136.798 51.772C136.556 51.2264 136.435 50.6201 136.435 50.0745V46.9828C136.435 45.7097 136.92 45.1034 137.829 45.1034C138.193 45.1034 138.556 45.1641 138.92 45.2853C139.284 45.4066 139.829 45.6491 140.436 45.8915C142.497 46.8009 144.74 47.5284 147.104 48.0134C149.529 48.4983 151.893 48.7408 154.318 48.7408C158.137 48.7408 161.107 48.074 163.168 46.7403C165.23 45.4066 166.321 43.4666 166.321 40.9811C166.321 39.2836 165.775 37.8893 164.684 36.7375C163.593 35.5857 161.532 34.5551 158.561 33.5851L149.771 30.8571C145.346 29.4627 142.072 27.4016 140.072 24.6735C138.071 22.0061 137.041 19.0356 137.041 15.8832C137.041 13.337 137.587 11.094 138.678 9.15406C139.769 7.21412 141.224 5.51668 143.042 4.18298C144.861 2.78865 146.922 1.75806 149.347 1.03059C151.772 0.303111 154.318 -3.8147e-06 156.985 -3.8147e-06C158.319 -3.8147e-06 159.713 0.0606191 161.047 0.242488C162.441 0.424357 163.714 0.666848 164.987 0.90934C166.199 1.21245 167.351 1.51557 168.442 1.87931C169.534 2.24304 170.382 2.60678 170.989 2.97052C171.837 3.4555 172.443 3.94049 172.807 4.48609C173.171 4.97108 173.353 5.63793 173.353 6.48665V9.33593C173.353 10.609 172.868 11.2759 171.958 11.2759C171.473 11.2759 170.685 11.0334 169.655 10.5484C166.199 8.97219 162.32 8.18409 158.016 8.18409C154.56 8.18409 151.832 8.7297 149.953 9.88153C148.074 11.0334 147.104 12.7914 147.104 15.277C147.104 16.9744 147.71 18.4294 148.923 19.5812C150.135 20.733 152.378 21.8849 155.591 22.9155L164.199 25.6435C168.564 27.0378 171.716 28.9778 173.595 31.4633C175.474 33.9488 176.384 36.7981 176.384 39.9505C176.384 42.5573 175.838 44.9216 174.808 46.9828C173.716 49.0439 172.262 50.8626 170.382 52.3176C168.503 53.8331 166.26 54.9244 163.653 55.7125C160.925 56.5612 158.076 56.9855 154.985 56.9855Z" fill="#252F3E"/>
<path fill-rule="evenodd" clip-rule="evenodd" d="M166.442 86.4483C146.498 101.18 117.521 109 92.6059 109C57.6884 109 26.2263 96.0873 2.463 74.6268C0.583754 72.9294 2.28113 70.6257 4.5241 71.9594C30.2273 86.8726 61.9319 95.9055 94.7277 95.9055C116.854 95.9055 141.163 91.2981 163.532 81.8409C166.866 80.3254 169.715 84.0234 166.442 86.4483Z" fill="#FF9900"/>
<path fill-rule="evenodd" clip-rule="evenodd" d="M174.747 76.9911C172.201 73.7175 157.894 75.4149 151.408 76.203C149.468 76.4455 149.165 74.7481 150.923 73.475C162.32 65.4728 181.052 67.7764 183.234 70.4438C185.416 73.1719 182.628 91.9043 171.958 100.877C170.322 102.271 168.746 101.543 169.473 99.7247C171.898 93.723 177.293 80.2041 174.747 76.9911Z" fill="#FF9900"/>
</g>
<defs>
<clipPath id="clip0_4_53">
<rect width="186" height="109" fill="white"/>
</clipPath>
</defs>
</svg>
