<svg width="93" height="105" viewBox="0 0 93 105" fill="none" xmlns="http://www.w3.org/2000/svg">
<g clip-path="url(#clip0_4_22)">
<path d="M92.8434 30.8844C92.8427 29.1236 92.4674 27.5678 91.7085 26.2324C90.9631 24.9193 89.8467 23.8188 88.3493 22.9486C75.9886 15.7965 63.616 8.66638 51.2593 1.50704C47.9281 -0.422871 44.6981 -0.352514 41.3915 1.6051C36.4716 4.51674 11.8393 18.6783 4.49924 22.9446C1.47638 24.7006 0.00544922 27.388 0.00472266 30.8811C0 45.2643 0.00472266 59.6472 0 74.0307C0.000726563 75.7528 0.360012 77.2785 1.08548 78.5938C1.8313 79.9466 2.96328 81.0774 4.49524 81.9673C11.8357 86.2336 36.4713 100.394 41.3901 103.306C44.6981 105.265 47.9281 105.335 51.2604 103.404C63.6175 96.2448 75.9908 89.1149 88.3533 81.9629C89.8852 81.0734 91.0172 79.9418 91.763 78.5901C92.4874 77.2748 92.8474 75.7492 92.8482 74.0267C92.8482 74.0267 92.8482 45.268 92.8434 30.8844Z" fill="#5C8DBC"/>
<path d="M46.5661 52.3158L1.08551 78.5938C1.83133 79.9466 2.96331 81.0774 4.49527 81.9673C11.8357 86.2336 36.4713 100.394 41.3901 103.306C44.6982 105.265 47.9281 105.335 51.2605 103.404C63.6175 96.2448 75.9908 89.1149 88.3533 81.9629C89.8852 81.0734 91.0172 79.9418 91.7631 78.5901L46.5661 52.3158Z" fill="#1A4674"/>
<path d="M33.0953 60.0996C35.7418 64.7359 40.7169 67.863 46.4241 67.863C52.1665 67.863 57.1699 64.6961 59.803 60.0102L46.5661 52.3158L33.0953 60.0996Z" fill="#1A4674"/>
<path d="M92.8434 30.8844C92.8427 29.1237 92.4674 27.5678 91.7085 26.2324L46.5661 52.3158L91.763 78.5901C92.4874 77.2748 92.8474 75.7492 92.8481 74.0267C92.8481 74.0267 92.8481 45.268 92.8434 30.8844Z" fill="#1B598E"/>
<path d="M90.3582 54.1939H86.8264V57.7388H83.2939V54.1939H79.7624V50.6501H83.2939V47.106H86.8264V50.6501H90.3582V54.1939ZM77.4708 54.1939H73.9394V57.7388H70.4076V54.1939H66.8757V50.6501H70.4076V47.106H73.9394V50.6501H77.4708V54.1939Z" fill="white"/>
<path d="M59.803 60.0102C57.1699 64.6961 52.1665 67.8629 46.4241 67.8629C40.7169 67.8629 35.7418 64.7359 33.0953 60.0996C31.7658 57.7732 31.0676 55.1375 31.0704 52.4557C31.0704 43.9469 37.9447 37.0489 46.4241 37.0489C52.0945 37.0489 57.0435 40.137 59.7031 44.7259L73.1231 36.9712C67.789 27.7314 57.8304 21.5152 46.4241 21.5152C29.3949 21.5152 15.5906 35.368 15.5906 52.4557C15.5906 58.0617 17.0768 63.3189 19.6742 67.8535C24.9948 77.1421 34.9818 83.3967 46.4241 83.3967C57.8874 83.3967 67.89 77.117 73.203 67.801L59.803 60.0102Z" fill="white"/>
</g>
<defs>
<clipPath id="clip0_4_22">
<rect width="93" height="105" fill="white"/>
</clipPath>
</defs>
</svg>
