<svg width="250" height="125" viewBox="0 0 250 125" fill="none" xmlns="http://www.w3.org/2000/svg">
<path d="M83.3333 86.9854V38.975H85.9375V46.5271C86.245 46.1922 86.529 45.8365 86.7875 45.4625C88.9625 40.95 93.55 38.1021 98.5583 38.1583C104.496 37.9812 109.321 40.1792 112.156 45.4625C113.961 48.7447 114.953 52.411 115.052 56.1552C115.151 59.8994 114.352 63.6128 112.723 66.9854C110.081 72.9062 103.556 75.85 96.5708 74.7687C94.3969 74.5839 92.3039 73.8576 90.4828 72.6559C88.6618 71.4543 87.1708 69.8156 86.1458 67.8896V86.9833L83.3333 86.9854ZM85.9375 55.9583L86.5208 61.5958C87.55 68.0125 91.3437 71.8042 97.3 72.5167C100.097 72.9765 102.967 72.4521 105.421 71.0329C107.875 69.6136 109.76 67.3872 110.756 64.7333C113.073 59.2125 112.902 52.9625 110.298 47.5708C109.235 45.1918 107.426 43.2235 105.146 41.9633C102.865 40.703 100.236 40.2194 97.6562 40.5854C95.2346 40.7616 92.928 41.6876 91.0568 43.2347C89.1856 44.7819 87.8427 46.8734 87.2146 49.2187C86.66 51.4382 86.2336 53.6878 85.9375 55.9562V55.9583ZM168.225 62.4833C167.83 65.8637 166.221 68.9856 163.697 71.2684C161.172 73.5512 157.905 74.8395 154.502 74.8937C143.581 75.4438 138.456 68.1917 137.642 59.8229C137.075 55.2783 137.813 50.6662 139.769 46.525C141.13 43.6841 143.36 41.3504 146.137 39.8619C148.913 38.3734 152.091 37.8073 155.21 38.2458C158.176 38.4979 160.987 39.6762 163.246 41.6141C165.505 43.5519 167.098 46.1511 167.798 49.0437C168.353 51.6788 168.761 54.3426 169.021 57.0229H140.34C139.808 64.6104 143.885 70.7104 149.665 72.1812C156.862 73.9521 163.015 70.8333 165.248 63.9896C165.744 62.2333 166.648 61.9854 168.244 62.4833H168.225ZM140.319 54.5937H165.973C165.812 46.5104 160.779 40.6354 153.952 40.5687C146.244 40.4437 140.654 46.0833 140.319 54.5937ZM173.527 62.6604H176.042C176.134 64.513 176.736 66.3041 177.78 67.8369C178.825 69.3696 180.272 70.5845 181.962 71.3479C184.085 72.3032 186.396 72.7674 188.723 72.7061C191.05 72.6448 193.333 72.0595 195.402 70.9937C196.53 70.4858 197.475 69.6439 198.109 68.5817C198.743 67.5194 199.036 66.2881 198.948 65.0542C199.013 63.8641 198.688 62.6853 198.022 61.6966C197.357 60.7078 196.387 59.963 195.26 59.575C192.494 58.5458 189.552 57.9792 186.733 57.075C183.8 56.2399 180.932 55.1913 178.152 53.9375C173.61 51.7208 173.329 43.0875 178.471 40.3542C181.104 38.8686 184.066 38.0659 187.089 38.0193C190.112 37.9727 193.098 38.6837 195.775 40.0875C199.096 41.9208 200.931 45.6229 200.385 49.3792H198.229C198.229 49.275 198.033 49.1833 198.033 49.0771C197.767 42.2021 191.988 40.0521 185.783 40.6562C183.908 40.8646 182.131 41.4312 180.465 42.2687C179.463 42.7263 178.628 43.4839 178.075 44.4368C177.523 45.3897 177.28 46.4907 177.381 47.5875C177.383 48.6851 177.725 49.7551 178.36 50.6505C178.995 51.5458 179.892 52.2225 180.927 52.5875C183.635 53.5812 186.51 54.2188 189.312 54.9979L196.083 56.7687C197.622 57.2739 198.972 58.2343 199.953 59.5229C200.934 60.8114 201.501 62.3676 201.579 63.9854C202.121 67.6208 200.267 71.1937 196.987 72.85C191.067 76.2 181.315 75.3146 176.971 71.0792C174.748 68.8437 173.508 65.8083 173.533 62.6583L173.527 62.6604ZM233.485 49.3812H231.127C231.127 49.0625 231.002 48.7562 230.967 48.5125C230.929 46.7447 230.285 45.0436 229.142 43.6945C227.999 42.3453 226.427 41.43 224.69 41.1021C221.412 40.162 217.916 40.3305 214.744 41.5812C213.49 41.9402 212.385 42.6955 211.596 43.7342C210.806 44.7729 210.374 46.0392 210.365 47.3437C210.32 48.6247 210.719 49.8819 211.494 50.9026C212.269 51.9234 213.373 52.6451 214.619 52.9458L225.398 55.7125C226.564 55.9921 227.712 56.3413 228.835 56.7583C232.273 58.0083 234.606 61.2 234.71 64.8479C234.762 66.6335 234.272 68.3929 233.305 69.8951C232.339 71.3972 230.94 72.5718 229.294 73.2646C226.792 74.401 224.08 75.0023 221.333 75.03C218.585 75.0576 215.862 74.5109 213.337 73.425C211.262 72.5299 209.51 71.0203 208.318 69.0994C207.126 67.1786 206.551 64.9387 206.671 62.6812H208.975C209.842 66.8583 212.71 70.3375 216.646 71.9833C220.581 73.6292 225.075 73.225 228.654 70.9083C229.728 70.3499 230.619 69.4954 231.223 68.4461C231.826 67.3968 232.116 66.1965 232.058 64.9875C232.112 63.7966 231.775 62.6208 231.1 61.6384C230.425 60.656 229.448 59.9206 228.317 59.5437C225.55 58.5146 222.608 57.9667 219.79 57.0438C216.84 56.2215 213.955 55.1847 211.156 53.9417C206.723 51.7604 206.369 43.1979 211.423 40.4667C214.088 38.9187 217.109 38.0871 220.191 38.0528C223.273 38.0185 226.311 38.7826 229.01 40.2708C230.554 41.1922 231.797 42.5426 232.587 44.1575C233.377 45.7725 233.68 47.5823 233.46 49.3667L233.485 49.3812ZM79.0479 74.0271C78.1196 74.3781 77.0949 74.3772 76.1672 74.0245C75.2396 73.6717 74.4731 72.9916 74.0125 72.1125L64.8458 59.4354L63.5167 57.6646L52.8792 72.1313C52.4456 72.9726 51.7206 73.6273 50.8396 73.9731C49.9585 74.3189 48.9818 74.3322 48.0917 74.0104L61.7958 55.625L49.0458 39.0125C50.9375 38.3292 53.0458 39.0708 54.0979 40.7833L63.5979 53.6167L73.1542 40.8333C73.591 40.0064 74.3164 39.3689 75.1926 39.042C76.0688 38.7151 77.0346 38.7217 77.9062 39.0604L72.9583 45.625L66.2562 54.3479C66.0702 54.514 65.9214 54.7176 65.8195 54.9452C65.7176 55.1728 65.6649 55.4194 65.6649 55.6688C65.6649 55.9181 65.7176 56.1647 65.8195 56.3923C65.9214 56.6199 66.0702 56.8235 66.2562 56.9896L79.0208 74.0271H79.0479ZM137.235 38.8354V41.3354C135.442 41.2178 133.644 41.4775 131.958 42.0977C130.271 42.7179 128.733 43.6849 127.443 44.9362C126.154 46.1875 125.141 47.6953 124.47 49.3624C123.799 51.0294 123.485 52.8187 123.548 54.6146C123.548 60.4535 123.548 66.2924 123.548 72.1313V74.1167H121.012V38.9917H123.512V46.1896C126.579 40.9396 131.312 38.9917 137.252 38.85L137.235 38.8354ZM15.2771 55.3958L16.3938 49.8812C19.4604 38.9771 31.9604 34.4396 40.5604 41.1938C45.5958 45.1479 46.8521 50.75 46.6063 57.0625H18.2375C17.7792 68.3375 25.9146 75.1458 36.3208 71.6708C39.75 70.4208 42.3313 67.5708 43.1813 64.0292C43.7313 62.2583 44.6396 61.9542 46.3021 62.4667C46.0248 64.6253 45.2617 66.6929 44.0702 68.5141C42.8787 70.3353 41.2898 71.8626 39.4229 72.9812C36.3387 74.668 32.8 75.3363 29.313 74.8907C25.826 74.445 22.5692 72.9082 20.0083 70.5C17.475 67.6521 15.9458 64.0521 15.6479 60.25C15.6479 59.625 15.4396 59.0417 15.2938 58.4792C15.2799 57.4278 15.2729 56.4 15.2729 55.3958H15.2771ZM18.2729 54.6333H43.9271C43.7667 46.4604 38.6083 40.6625 31.7292 40.6083C24.0708 40.5042 18.5917 46.175 18.2542 54.5979L18.2729 54.6333Z" fill="white"/>
</svg>
