<svg width="125" height="125" viewBox="0 0 125 125" fill="none" xmlns="http://www.w3.org/2000/svg">
<g clip-path="url(#clip0_14_2)">
<path d="M0 0H125V125H0V0Z" fill="#F0DB4F"/>
<path d="M114.769 95.1878C113.855 89.4843 110.135 84.6958 99.1207 80.2282C95.2947 78.4696 91.029 77.2102 89.7576 74.3109C89.3061 72.6236 89.2467 71.673 89.5318 70.6512C90.3517 67.336 94.3085 66.3023 97.4453 67.2529C99.4653 67.9301 101.378 69.4868 102.531 71.9701C107.925 68.4768 107.913 68.5005 111.68 66.1004C110.302 63.9616 109.565 62.9753 108.662 62.0605C105.418 58.4364 100.998 56.571 93.9282 56.7135C92.7044 56.868 91.4688 57.0342 90.2448 57.1888C86.7159 58.08 83.3531 59.9336 81.3807 62.417C75.4634 69.1304 77.1507 80.8817 84.3512 85.7178C91.4449 91.041 101.865 92.253 103.196 97.2316C104.491 103.327 98.7169 105.299 92.9777 104.599C88.7476 103.719 86.3951 101.569 83.8522 97.6594C79.1707 100.368 79.1707 100.368 74.3585 103.137C75.4992 105.632 76.6992 106.761 78.6123 108.924C87.6665 118.108 110.326 117.657 114.389 103.755C114.556 103.279 115.649 100.095 114.769 95.1878ZM67.9539 57.4501H56.2619C56.2619 67.5499 56.2145 77.5784 56.2145 87.6782C56.2145 94.1065 56.5472 100 55.5016 101.806C53.7905 105.359 49.3585 104.919 47.3385 104.23C45.2829 103.22 44.2373 101.782 43.0253 99.7505C42.6926 99.1683 42.4431 98.7167 42.3598 98.6811C39.1874 100.618 36.0266 102.566 32.8541 104.503C34.4345 107.747 36.7633 110.563 39.7457 112.393C44.2015 115.066 50.1901 115.886 56.4521 114.449C60.5277 113.26 64.0447 110.801 65.8864 107.058C68.548 102.151 67.9777 96.2096 67.9539 89.6388C68.0133 78.9211 67.9539 68.2034 67.9539 57.4501Z" fill="#323330"/>
</g>
<defs>
<clipPath id="clip0_14_2">
<rect width="125" height="125" fill="white"/>
</clipPath>
</defs>
</svg>
