<svg width="120" height="205" viewBox="0 0 120 205" fill="none" xmlns="http://www.w3.org/2000/svg">
<path d="M41.3062 109.522C41.3062 109.522 36.4058 112.504 44.7164 113.356C54.7527 114.634 60.0589 114.421 71.1382 112.292C71.1382 112.292 74.1207 114.211 78.1702 115.701C53.2363 126.35 21.7003 115.062 41.3062 109.522ZM38.1098 95.6783C38.1098 95.6783 32.7818 99.726 41.0923 100.576C51.9578 101.641 60.4843 101.854 75.1876 98.8754C75.1876 98.8754 77.1076 101.006 80.3018 102.07C50.2582 111.016 16.5883 102.919 38.1098 95.6783ZM96.9229 119.96C96.9229 119.96 100.545 122.941 92.8734 125.286C78.5956 129.545 32.9956 130.825 20.2102 125.286C15.7374 123.366 24.2596 120.597 27.0283 120.174C29.7993 119.535 31.2894 119.535 31.2894 119.535C26.3891 116.126 -1.31347 126.564 17.2254 129.567C68.1534 137.876 110.134 125.946 96.9207 119.982L96.9229 119.96ZM43.6494 81.1931C43.6494 81.1931 20.4218 86.7324 35.3367 88.6472C41.7294 89.4978 54.3011 89.2862 66.0218 88.4335C75.6109 87.583 85.2218 85.8776 85.2218 85.8776C85.2218 85.8776 81.8116 87.3693 79.4684 88.8588C55.7956 95.0415 10.4073 92.2718 23.4065 85.8819C34.4902 80.5563 43.6494 81.1931 43.6494 81.1931ZM85.2 104.41C109.069 92.0559 97.9854 80.1288 90.3142 81.6205C88.3942 82.0458 87.5433 82.4711 87.5433 82.4711C87.5433 82.4711 88.1825 81.1931 89.6749 80.77C104.804 75.4444 116.738 96.7447 84.7745 105.052C84.7745 105.052 84.9883 104.836 85.2 104.41ZM45.9927 138.061C69.0065 139.553 104.167 137.21 105.02 126.345C105.02 126.345 103.318 130.605 86.0553 133.8C66.4516 137.42 42.1571 136.995 27.8814 134.65C27.8814 134.65 30.864 137.206 45.9949 138.059L45.9927 138.061Z" fill="#4E7896"/>
<path d="M70.6909 10.9043C70.6909 10.9043 83.9019 24.323 58.1193 44.5548C37.4488 60.9548 53.4284 70.3281 58.1193 80.975C45.9731 70.1144 37.2393 60.5273 43.2022 51.5815C51.96 38.383 76.0364 31.9931 70.6909 10.9043ZM63.8728 72.0335C70.0517 79.0624 62.1709 85.4523 62.1709 85.4523C62.1709 85.4523 77.9389 77.3613 70.6953 67.3469C64.0888 57.762 58.9746 53.0754 86.6771 37.0985C86.6771 37.0985 42.9928 47.9591 63.8771 72.0291L63.8728 72.0335Z" fill="#F58219"/>
<path d="M52.8764 183.66V162.79C52.8764 157.464 49.8938 153.844 42.4342 153.844C38.1731 153.844 34.5491 154.908 31.3506 156.186L32.4153 160.02C34.7586 159.169 37.7433 158.319 40.9397 158.319C44.9891 158.319 46.9069 160.02 46.9069 163.431V166.2H44.7753C34.5469 166.2 29.8582 170.034 29.8582 176.232C29.8582 181.344 33.0546 184.323 38.808 184.323C42.4298 184.323 45.2008 182.622 47.7578 180.489L48.1833 183.684H52.8742L52.8764 183.66ZM46.9091 176.845C44.7775 178.764 42.4364 179.826 40.3026 179.826C37.5317 179.826 35.8298 178.125 35.8298 175.138C35.8298 172.15 37.5317 170.026 44.3542 170.026H46.9091V176.841V176.845ZM72.9055 183.66H65.448L56.4982 154.481H62.8909L68.4328 172.372L69.7113 177.698C72.4822 170.03 74.6117 162.148 75.4648 154.481H81.8575C80.1557 164.065 77.1644 174.501 72.9055 183.66ZM107.426 183.66V162.79C107.426 157.464 104.444 153.844 96.984 153.844C92.7229 153.844 89.0989 154.908 85.9004 156.186L86.7513 160.02C89.3084 159.169 92.2931 158.319 95.4873 158.319C99.5368 158.319 101.455 160.02 101.455 163.431V166.2H99.3229C89.0946 166.2 84.4059 170.034 84.4059 176.232C84.4059 181.344 87.3884 184.323 93.1418 184.323C96.9775 184.323 99.7484 182.622 102.305 180.489L102.731 183.684H107.422L107.426 183.66ZM101.459 176.845C99.3273 178.764 96.9862 179.826 94.8524 179.826C92.0815 179.826 90.3797 178.125 90.3797 175.138C90.3797 172.15 92.0815 170.026 98.904 170.026H101.461V176.841L101.459 176.845ZM23.2582 188.556C21.5564 191.112 18.9971 193.027 15.8008 194.096L13.0298 190.687C15.1615 189.409 17.2909 187.492 18.144 185.789C18.9949 184.297 19.2088 182.169 19.2088 177.268V144.045H25.6015V176.845C25.6015 183.449 24.9622 186.005 23.2582 188.561V188.556Z" fill="#4E7896"/>
</svg>
