<svg width="70" height="70" viewBox="0 0 70 70" fill="none" xmlns="http://www.w3.org/2000/svg">
<g clip-path="url(#clip0_4_42)">
<path d="M35 70C54.33 70 70 54.33 70 35C70 15.67 54.33 0 35 0C15.67 0 0 15.67 0 35C0 54.33 15.67 70 35 70Z" fill="#13AA52"/>
<path d="M44.3557 30.7234C42.1449 20.9665 36.9202 17.7584 36.3576 16.5327C35.7424 15.668 35.1189 14.1299 35.1189 14.1299C35.1087 14.1039 35.0923 14.0581 35.0731 14.0137C35.0096 14.8784 34.9768 15.212 34.1592 16.0843C32.8932 17.0741 26.3977 22.5244 25.8692 33.6096C25.3764 43.9482 33.3375 50.1088 34.4142 50.8942L34.5365 50.9811V50.9735C34.5434 51.0255 34.8783 53.4345 35.1135 55.987H35.957C36.155 54.1827 36.4516 52.3906 36.8457 50.6187L36.9141 50.5743C37.3957 50.229 37.8548 49.8534 38.2888 49.4498L38.338 49.4054C40.6267 47.291 44.7412 42.4006 44.7009 34.6035C44.6924 33.3029 44.5769 32.0051 44.3557 30.7234ZM35.0239 45.057C35.0239 45.057 35.0239 30.5566 35.5024 30.5594C35.8757 30.5594 36.359 49.2632 36.359 49.2632C35.6945 49.1832 35.0239 46.185 35.0239 45.057Z" fill="white"/>
</g>
<defs>
<clipPath id="clip0_4_42">
<rect width="70" height="70" fill="white"/>
</clipPath>
</defs>
</svg>
