<svg width="408" height="83" viewBox="0 0 408 83" fill="none" xmlns="http://www.w3.org/2000/svg">
<g clip-path="url(#clip0_4_8)">
<path d="M271.226 0.35965H342.292V13.4917H314.101V82.5771H300.004V13.4917H271.226V0.35965ZM154.348 0.35965V13.4917H97.3836V34.6168H143.195V47.7488H97.3836V69.4451H154.348V82.5782H83.2879V13.4917H83.2817V0.35965H154.348ZM189.834 0.393861H171.387L237.46 82.6114H255.961L222.92 41.5306L255.908 0.456064L237.46 0.485092L213.684 30.048L189.834 0.393861ZM208.763 59.1226L199.525 47.6234L171.334 82.6746H189.834L208.763 59.1226Z" fill="#FCFCFC"/>
<path fill-rule="evenodd" clip-rule="evenodd" d="M83.7819 82.5771L17.6196 0.325409H0V82.5429H14.0957V17.8998L66.0742 82.5771H83.7819Z" fill="#FCFCFC"/>
<path d="M345.461 82.0754C344.971 82.0833 344.484 81.9923 344.029 81.8078C343.574 81.6233 343.162 81.349 342.815 81.0013C342.08 80.285 341.717 79.4183 341.726 78.3909C341.717 77.3925 342.08 76.5352 342.815 75.8188C343.162 75.4711 343.574 75.1969 344.029 75.0123C344.484 74.8278 344.971 74.7368 345.461 74.7448C346.454 74.7448 347.323 75.1024 348.058 75.8188C348.804 76.5341 349.176 77.3925 349.186 78.3909C349.184 79.0461 349.002 79.6882 348.66 80.2466C348.324 80.7984 347.854 81.2557 347.294 81.5757C346.74 81.9071 346.106 82.0799 345.461 82.0754ZM369.52 47.4388H375.766V71.532C375.757 73.7454 375.278 75.6395 374.343 77.2318C373.398 78.8242 372.089 80.0393 370.408 80.8966C368.737 81.7447 366.779 82.179 364.553 82.179C362.518 82.179 360.695 81.811 359.071 81.0946C357.447 80.3793 356.158 79.3053 355.213 77.8912C354.257 76.4782 353.789 74.7157 353.789 72.606H360.046C360.055 73.5287 360.265 74.3301 360.666 74.9988C361.06 75.6602 361.638 76.1934 362.328 76.5341C363.043 76.8928 363.866 77.0722 364.791 77.0722C365.795 77.0722 366.654 76.8649 367.351 76.4398C368.048 76.0251 368.583 75.4031 368.956 74.5748C369.319 73.7558 369.51 72.7377 369.52 71.532V47.4388ZM401.467 56.8615C401.315 55.4008 400.646 54.2604 399.481 53.4507C398.305 52.6317 396.787 52.2253 394.924 52.2253C393.616 52.2253 392.49 52.4233 391.554 52.81C390.618 53.206 389.892 53.7327 389.395 54.4024C388.899 55.0711 388.65 55.8341 388.63 56.6915C388.63 57.4078 388.802 58.0288 389.137 58.5472C389.471 59.0759 389.92 59.5186 390.503 59.8763C391.102 60.2543 391.743 60.5612 392.413 60.7906C393.119 61.0353 393.827 61.2426 394.533 61.4127L397.79 62.213C399.087 62.5084 400.356 62.9185 401.582 63.4384C402.76 63.9263 403.863 64.5798 404.857 65.3791C405.812 66.1485 406.593 67.1117 407.15 68.2052C407.713 69.3083 408 70.599 408 72.0877C408 74.0948 407.484 75.8561 406.443 77.3832C405.402 78.8999 403.902 80.087 401.935 80.9443C399.977 81.7923 397.608 82.2257 394.82 82.2257C392.126 82.2257 389.777 81.811 387.8 80.9816C385.814 80.1626 384.266 78.9559 383.148 77.3739C382.031 75.7908 381.429 73.8594 381.343 71.589H387.533C387.619 72.775 388.001 73.7651 388.65 74.5654C389.309 75.3564 390.168 75.9411 391.219 76.3372C392.28 76.7228 393.463 76.9208 394.772 76.9208C396.138 76.9208 397.341 76.7135 398.382 76.3092C399.413 75.9038 400.225 75.3378 400.808 74.6028C401.401 73.8771 401.697 73.0207 401.706 72.04C401.697 71.1453 401.429 70.401 400.913 69.8162C400.388 69.2326 399.662 68.7422 398.735 68.3472C397.675 67.9091 396.583 67.5531 395.469 67.2825L391.515 66.2831C388.659 65.5574 386.396 64.4554 384.743 62.976C383.082 61.4966 382.26 59.5372 382.26 57.0771C382.26 55.0618 382.814 53.29 383.932 51.7733C385.039 50.2566 386.558 49.0779 388.478 48.2402C390.407 47.3922 392.585 46.9775 395.01 46.9775C397.475 46.9775 399.633 47.3922 401.496 48.2402C403.358 49.0789 404.82 50.2473 405.879 51.736C406.94 53.2247 407.494 54.9291 407.523 56.8615H401.467Z" fill="#FCFCFC"/>
</g>
<defs>
<clipPath id="clip0_4_8">
<rect width="408" height="83" fill="white"/>
</clipPath>
</defs>
</svg>
