<svg width="122" height="134" viewBox="0 0 122 134" fill="none" xmlns="http://www.w3.org/2000/svg">
<g clip-path="url(#clip0_4_13)">
<path d="M56.2219 2.4234C59.539 0.529814 63.8596 0.521261 67.1738 2.4234C83.8475 11.8196 100.526 21.201 117.197 30.6028C120.333 32.3643 122.43 35.8445 122.398 39.4478V95.9787C122.422 99.7311 120.117 103.295 116.809 105.016C100.19 114.36 83.5797 123.716 66.9637 133.061C63.578 134.991 59.1707 134.842 55.8908 132.754C50.9085 129.873 45.9176 127.007 40.9348 124.129C39.9166 123.524 38.7688 123.042 38.0498 122.057C38.6854 121.203 39.8218 121.097 40.7451 120.724C42.8249 120.064 44.735 119.005 46.6456 117.978C47.1287 117.648 47.7186 117.775 48.1817 118.07C52.4422 120.506 56.665 123.013 60.9398 125.426C61.8517 125.951 62.7751 125.254 63.5546 124.821C79.8628 115.628 96.1911 106.471 112.496 97.2754C113.101 96.9856 113.435 96.346 113.385 95.686C113.397 77.0376 113.388 58.386 113.391 39.7376C113.46 38.9888 113.026 38.3002 112.347 37.9937C95.7856 28.6921 79.2329 19.3763 62.6746 10.0723C62.3877 9.87562 62.0479 9.77009 61.6997 9.76958C61.3516 9.76907 61.0114 9.87361 60.724 10.0695C44.1656 19.3763 27.6158 28.7007 11.0575 38.0018C10.3809 38.3088 9.92686 38.9859 10.0074 39.7376C10.0102 58.386 10.0074 77.0376 10.0074 95.6888C9.97866 96.0108 10.0496 96.3339 10.2106 96.6145C10.3716 96.8952 10.6149 97.1198 10.9079 97.2583C15.3266 99.7573 19.7509 102.239 24.1725 104.729C26.6634 106.066 29.7218 106.861 32.4662 105.836C34.888 104.97 36.5856 102.505 36.5394 99.9407C36.5623 81.4012 36.528 62.8588 36.5566 44.3222C36.4961 43.4991 37.2789 42.8192 38.0812 42.8966C40.2043 42.8824 42.3303 42.8681 44.4534 42.9023C45.3396 42.8824 45.9495 43.7686 45.8399 44.5978C45.8313 63.2546 45.8628 81.912 45.8256 100.569C45.8313 105.541 43.783 110.952 39.1714 113.384C33.4901 116.32 26.4681 115.697 20.8554 112.883C15.9965 110.464 11.3596 107.61 6.58688 105.018C3.27026 103.306 0.977064 99.7288 1.00041 95.9791V39.4478C0.965629 35.7699 3.14638 32.2265 6.37962 30.4907C22.9956 21.1387 39.6088 11.7796 56.2219 2.4234Z" fill="#8CC84B"/>
<path d="M70.7177 41.5828C77.9646 41.1176 85.7228 41.3072 92.2441 44.8677C97.2931 47.5961 100.092 53.3225 100.181 58.9168C100.04 59.6713 99.2494 60.0876 98.5271 60.0358C96.4245 60.0329 94.3214 60.0643 92.2188 60.0215C91.3269 60.0558 90.8085 59.2356 90.6965 58.4492C90.0924 55.7725 88.6287 53.1215 86.1025 51.8304C82.2246 49.8941 77.7283 49.9915 73.4997 50.0319C70.4127 50.1954 67.0933 50.4619 64.478 52.2724C62.4702 53.6437 61.8603 56.4121 62.5769 58.6416C63.2525 60.2425 65.1055 60.759 66.6216 61.2351C75.355 63.5131 84.6098 63.2865 93.1765 66.2844C96.7232 67.5065 100.193 69.8824 101.407 73.586C102.995 78.5497 102.299 84.4827 98.7577 88.4676C95.8861 91.7468 91.7038 93.5315 87.5324 94.5009C81.9831 95.7349 76.2241 95.7663 70.5886 95.2184C65.2894 94.6159 59.7749 93.2274 55.684 89.6265C52.1858 86.5973 50.4773 81.8773 50.6469 77.3218C50.6874 76.5525 51.4554 76.016 52.1944 76.0792C54.3118 76.0621 56.4292 76.0564 58.5466 76.0821C59.3923 76.0217 60.0193 76.7506 60.0626 77.5456C60.4533 80.0959 61.4144 82.7726 63.6442 84.2846C67.9475 87.0534 73.3472 86.8638 78.2748 86.9413C82.3571 86.7607 86.9397 86.7061 90.271 84.0151C92.0287 82.4803 92.5495 79.9125 92.0744 77.7034C91.5599 75.8383 89.6035 74.9692 87.9235 74.4009C79.302 71.681 69.9439 72.6679 61.4058 69.5921C57.9395 68.3704 54.5877 66.0606 53.256 62.5091C51.3978 57.4827 52.2492 51.2654 56.1614 47.4151C59.9759 43.5852 65.4823 42.1107 70.7177 41.5828Z" fill="#8CC84B"/>
</g>
<defs>
<clipPath id="clip0_4_13">
<rect width="122" height="134" fill="white"/>
</clipPath>
</defs>
</svg>
