<svg width="72" height="79" viewBox="0 0 72 79" fill="none" xmlns="http://www.w3.org/2000/svg">
<g clip-path="url(#clip0_4_62)">
<path d="M35.6232 -2.53627e-05C32.6498 0.0143383 29.8106 0.269619 27.312 0.714892C19.9525 2.02329 18.6163 4.76283 18.6163 9.81425V16.4862H36.0085V18.7099H12.0896C7.03464 18.7099 2.60891 21.7681 1.22469 27.5853C-0.372281 34.2533 -0.442984 38.4142 1.22469 45.3767C2.46037 50.5593 5.41302 54.2521 10.4679 54.2521H16.4472V46.2541C16.4472 40.476 21.4139 35.3789 27.312 35.3789H44.6842C49.5192 35.3789 53.3799 31.3715 53.3799 26.4833V9.81491C53.3799 5.07034 49.4037 1.5062 44.6842 0.714892C41.6965 0.214123 38.5966 -0.0130832 35.6232 -2.53627e-05ZM26.2178 5.36675C28.0145 5.36675 29.4811 6.8671 29.4811 8.71283C29.4811 10.5514 28.0139 12.038 26.2178 12.038C24.4145 12.038 22.9544 10.5514 22.9544 8.71283C22.9544 6.8671 24.4152 5.36675 26.2178 5.36675Z" fill="url(#paint0_linear_4_62)"/>
<path d="M55.549 18.7099V26.4833C55.549 32.5101 50.4726 37.5825 44.6841 37.5825H27.312C22.5535 37.5825 18.6162 41.682 18.6162 46.4781V63.1478C18.6162 67.8917 22.715 70.6822 27.312 72.0434C32.8177 73.6724 38.0971 73.9669 44.6841 72.0434C49.0625 70.767 53.3799 68.1992 53.3799 63.1478V56.4752H36.0084V54.2521H62.0757C67.1306 54.2521 69.0136 50.703 70.7715 45.3767C72.5877 39.893 72.5098 34.6196 70.7715 27.5854C69.5228 22.5202 67.1364 18.7099 62.0757 18.7099H55.549ZM45.7784 60.9234C47.5816 60.9234 49.0417 62.4107 49.0417 64.2492C49.0417 66.0949 47.5816 67.5953 45.7784 67.5953C43.9816 67.5953 42.515 66.0949 42.515 64.2492C42.515 62.4107 43.9816 60.9234 45.7784 60.9234Z" fill="url(#paint1_linear_4_62)"/>
<path opacity="0.44382" d="M36.2056 87.9237C49.0775 87.9237 59.5122 85.8872 59.5122 83.375C59.5122 80.8628 49.0775 78.8263 36.2056 78.8263C23.3338 78.8263 12.899 80.8628 12.899 83.375C12.899 85.8872 23.3338 87.9237 36.2056 87.9237Z" fill="url(#paint2_radial_4_62)"/>
</g>
<defs>
<linearGradient id="paint0_linear_4_62" x1="0.000126974" y1="0.000270547" x2="40.3235" y2="34.1382" gradientUnits="userSpaceOnUse">
<stop stop-color="#5A9FD4"/>
<stop offset="1" stop-color="#306998"/>
</linearGradient>
<linearGradient id="paint1_linear_4_62" x1="45.3604" y1="63.6885" x2="30.848" y2="43.4845" gradientUnits="userSpaceOnUse">
<stop stop-color="#FFD43B"/>
<stop offset="1" stop-color="#FFE873"/>
</linearGradient>
<radialGradient id="paint2_radial_4_62" cx="0" cy="0" r="1" gradientUnits="userSpaceOnUse" gradientTransform="translate(36.2063 83.3747) rotate(-90) scale(4.54898 19.8645)">
<stop stop-color="#B8B8B8" stop-opacity="0.498039"/>
<stop offset="1" stop-color="#7F7F7F" stop-opacity="0"/>
</radialGradient>
<clipPath id="clip0_4_62">
<rect width="72" height="79" fill="white"/>
</clipPath>
</defs>
</svg>
