<svg width="200" height="178" viewBox="0 0 200 178" fill="none" xmlns="http://www.w3.org/2000/svg">
<path d="M200 88.9719C200 75.7381 183.408 63.1965 157.97 55.4191C163.84 29.5216 161.231 8.91755 149.735 2.32101C147.085 0.773668 143.987 0.0407188 140.603 0.0407188V9.12115C142.479 9.12115 143.987 9.48763 145.251 10.1799C150.795 13.356 153.2 25.4496 151.325 41.0045C150.876 44.8321 150.143 48.8633 149.246 52.976C141.256 51.0214 132.532 49.5148 123.359 48.5375C117.856 41.0045 112.148 34.1636 106.4 28.1778C119.69 15.8399 132.165 9.08043 140.644 9.08043V0C129.433 0 114.757 7.98101 99.9185 21.8256C85.0795 8.06245 70.4036 0.162878 59.1928 0.162878V9.24331C67.6315 9.24331 80.1468 15.962 93.4366 28.2186C87.7293 34.2043 82.022 41.0045 76.6001 48.5375C67.3869 49.5148 58.6629 51.0214 50.6726 53.0167C49.735 48.9447 49.042 44.995 48.5528 41.208C46.6368 25.6532 49.0012 13.5596 54.5047 10.3427C55.7277 9.60978 57.3176 9.28403 59.1928 9.28403V0.203597C55.7684 0.203597 52.6702 0.936546 49.9796 2.48388C38.5243 9.08043 35.956 29.6437 41.8671 55.4599C16.5104 63.278 0 75.7788 0 88.9719C0 102.206 16.5919 114.747 42.0302 122.525C36.1598 148.422 38.7689 169.026 50.265 175.623C52.9148 177.17 56.013 177.903 59.4374 177.903C70.6482 177.903 85.3241 169.922 100.163 156.078C115.002 169.841 129.678 177.74 140.889 177.74C144.313 177.74 147.411 177.007 150.102 175.46C161.557 168.863 164.126 148.3 158.214 122.484C183.49 114.707 200 102.165 200 88.9719ZM146.922 61.8121C145.414 67.0649 143.539 72.4806 141.419 77.8962C139.747 74.6387 137.994 71.3811 136.078 68.1236C134.203 64.866 132.205 61.6899 130.208 58.5952C135.997 59.4504 141.582 60.5091 146.922 61.8121ZM128.251 105.178C125.071 110.675 121.81 115.887 118.426 120.733C112.352 121.262 106.196 121.547 100 121.547C93.8443 121.547 87.6885 121.262 81.6551 120.774C78.2715 115.928 74.9694 110.757 71.7896 105.3C68.6914 99.9662 65.8785 94.5505 63.3102 89.0941C65.8378 83.6377 68.6914 78.1813 71.7489 72.847C74.9287 67.3499 78.19 62.1378 81.5736 57.2922C87.6478 56.7629 93.8035 56.4778 100 56.4778C106.156 56.4778 112.311 56.7629 118.345 57.2515C121.728 62.0971 125.031 67.2685 128.21 72.7249C131.309 78.0591 134.121 83.4748 136.69 88.9312C134.121 94.3876 131.309 99.844 128.251 105.178ZM141.419 99.8847C143.62 105.341 145.495 110.798 147.044 116.091C141.704 117.394 136.078 118.494 130.249 119.349C132.246 116.213 134.244 112.996 136.119 109.698C137.994 106.441 139.747 103.142 141.419 99.8847ZM100.082 143.332C96.2903 139.423 92.499 135.066 88.7485 130.302C92.4174 130.465 96.168 130.587 99.9592 130.587C103.791 130.587 107.583 130.506 111.292 130.302C107.623 135.066 103.832 139.423 100.082 143.332ZM69.7513 119.349C63.9625 118.494 58.3775 117.435 53.0371 116.132C54.5455 110.879 56.4207 105.463 58.5406 100.048C60.212 103.305 61.9649 106.563 63.881 109.82C65.797 113.078 67.7538 116.254 69.7513 119.349ZM99.8777 34.6115C103.669 38.5206 107.46 42.8775 111.211 47.6417C107.542 47.4788 103.791 47.3567 100 47.3567C96.168 47.3567 92.3767 47.4381 88.6669 47.6417C92.3359 42.8775 96.1272 38.5206 99.8777 34.6115ZM69.7106 58.5952C67.713 61.7306 65.7154 64.9475 63.8402 68.2458C61.9649 71.5033 60.212 74.7609 58.5406 78.0184C56.3392 72.562 54.4639 67.1056 52.9148 61.8121C58.2552 60.5498 63.881 59.4504 69.7106 58.5952ZM32.817 109.576C18.3857 103.427 9.05014 95.3649 9.05014 88.9719C9.05014 82.579 18.3857 74.4758 32.817 68.3679C36.3229 66.8613 40.1549 65.5175 44.1093 64.2552C46.4329 72.2363 49.4904 80.543 53.2817 89.0534C49.5312 97.523 46.5145 105.789 44.2316 113.729C40.1957 112.467 36.3636 111.083 32.817 109.576ZM54.7493 167.764C49.2051 164.588 46.7998 152.494 48.6751 136.939C49.1235 133.112 49.8573 129.081 50.7542 124.968C58.7444 126.922 67.4684 128.429 76.6409 129.406C82.1443 136.939 87.8516 143.78 93.5997 149.766C80.3098 162.104 67.8353 168.863 59.3559 168.863C57.5214 168.823 55.9723 168.456 54.7493 167.764ZM151.447 136.736C153.363 152.291 150.999 164.384 145.495 167.601C144.272 168.334 142.682 168.66 140.807 168.66C132.369 168.66 119.853 161.941 106.563 149.685C112.271 143.699 117.978 136.899 123.4 129.366C132.613 128.388 141.337 126.882 149.327 124.886C150.265 128.999 150.999 132.949 151.447 136.736ZM167.142 109.576C163.636 111.083 159.804 112.426 155.85 113.689C153.526 105.708 150.469 97.4008 146.678 88.8905C150.428 80.4209 153.445 72.1548 155.728 64.2145C159.764 65.4768 163.596 66.8613 167.183 68.3679C181.614 74.5165 190.95 82.579 190.95 88.9719C190.909 95.3649 181.574 103.468 167.142 109.576Z" fill="#61DAFB"/>
<path d="M99.9592 107.581C110.248 107.581 118.589 99.2493 118.589 88.9719C118.589 78.6946 110.248 70.3632 99.9592 70.3632C89.67 70.3632 81.329 78.6946 81.329 88.9719C81.329 99.2493 89.67 107.581 99.9592 107.581Z" fill="#61DAFB"/>
</svg>
