<svg width="92" height="75" viewBox="0 0 92 75" fill="none" xmlns="http://www.w3.org/2000/svg">
<path fill-rule="evenodd" clip-rule="evenodd" d="M76.9592 5.31367L78.8983 7.86276C79.4074 8.53554 79.2801 9.49986 78.6063 10.0082L76.5474 11.5705C76.9217 12.5647 77.1613 13.6262 77.2586 14.7102L79.6021 15.0316C80.4406 15.1437 81.0246 15.9212 80.9123 16.7584L80.478 19.9354C80.3657 20.7727 79.5871 21.3632 78.7485 21.2436L76.188 20.8923C75.7313 21.8865 75.1473 22.7985 74.4585 23.6133L75.896 25.4971C76.4051 26.1698 76.2703 27.1342 75.5965 27.6425L73.0435 29.5786C72.3696 30.0869 71.4038 29.9524 70.8947 29.2871L69.3299 27.2313C68.3267 27.6051 67.271 27.8443 66.1779 27.9415L65.856 30.2813C65.7437 31.1185 64.965 31.7016 64.1265 31.5895L60.9445 31.1559C60.106 31.0438 59.522 30.2663 59.6343 29.4291L59.9862 26.8725C58.9979 26.4165 58.077 25.8335 57.2609 25.1532L55.3742 26.581C54.7004 27.0893 53.7345 26.9622 53.2254 26.2894L51.2863 23.7404C50.7772 23.0676 50.9045 22.1033 51.5783 21.5949L53.6372 20.0326C53.2629 19.0309 53.0233 17.9769 52.926 16.893L50.5825 16.5715C49.744 16.4594 49.1525 15.682 49.2723 14.8447L49.7065 11.6677C49.8263 10.8305 50.5975 10.2474 51.436 10.3595L53.9966 10.7109C54.4533 9.72412 55.0373 8.80465 55.7186 7.98984L54.2886 6.10606C53.7795 5.44075 53.9067 4.47643 54.5806 3.96811L57.1336 2.032C57.8075 1.52368 58.7733 1.65076 59.2824 2.32354L60.8472 4.37925C61.8429 4.00549 62.9061 3.76628 63.9917 3.6691L64.3136 1.32932C64.4259 0.492082 65.2046 -0.0984691 66.0431 0.0136609L69.2251 0.44723C70.0636 0.55936 70.6551 1.33679 70.5353 2.17403L70.1834 4.7306C71.1792 5.18659 72.0926 5.76967 72.9162 6.4574L74.8029 5.02961C75.4767 4.51381 76.4426 4.64089 76.9592 5.31367ZM22.2144 50.1731V37.8388H28.5783C29.7612 37.8388 30.6597 37.936 31.2811 38.1453C31.9025 38.3472 32.4116 38.7209 32.786 39.2666C33.1678 39.8198 33.3625 40.4851 33.3625 41.27C33.3625 41.9503 33.2127 42.5483 32.9207 43.0417C32.6288 43.5425 32.2245 43.9462 31.7153 44.2527C31.3934 44.447 30.9442 44.6115 30.3752 44.7386C30.8319 44.8955 31.1613 45.0376 31.3635 45.1946C31.5057 45.2992 31.7079 45.516 31.9699 45.8449C32.2319 46.1738 32.4116 46.4355 32.5015 46.6149L34.3582 50.1806H30.0457L28.0093 46.4205C27.7472 45.9346 27.5226 45.6132 27.3205 45.4712C27.0435 45.2843 26.729 45.1871 26.3846 45.1871H26.0477V50.1806H22.2144V50.1731ZM35.676 71.6498H28.5484L27.5226 74.9987H21.0988L28.758 54.6733H35.646L43.2752 74.9987H36.6867L35.676 71.6498ZM34.3433 67.2468L32.1196 59.9359L29.8885 67.2468H34.3433ZM44.7577 54.6733H55.2245C57.508 54.6733 59.215 55.2115 60.3455 56.2954C61.4761 57.3794 62.0451 58.9268 62.0451 60.9227C62.0451 62.9784 61.4237 64.5856 60.1883 65.7442C58.953 66.9029 57.0588 67.4785 54.5207 67.4785H51.0692V74.9987H44.7577V54.6733ZM51.0692 63.3596H52.619C53.8394 63.3596 54.7004 63.1503 55.1945 62.7242C55.6886 62.3056 55.9357 61.7599 55.9357 61.1095C55.9357 60.4741 55.7186 59.9284 55.2918 59.4874C54.8651 59.0464 54.0565 58.8221 52.8735 58.8221H51.0692V63.3596ZM64.5907 54.6733H70.9022V74.9987H64.5907V54.6733ZM26.0477 42.8473H27.6574C27.8296 42.8473 28.1665 42.7875 28.6681 42.6754C28.9227 42.6231 29.1323 42.496 29.2896 42.2867C29.4543 42.0774 29.5291 41.8381 29.5291 41.569C29.5291 41.1728 29.4019 40.8589 29.1473 40.6496C28.8928 40.4328 28.4211 40.3281 27.7248 40.3281H26.0477V42.8473ZM35.092 37.8388H45.3117V40.4702H38.9253V42.4362H44.8475V44.9479H38.9253V47.3774H45.4989V50.1657H35.092V37.8388ZM46.4048 46.0916L50.0285 45.8673C50.1034 46.4579 50.2681 46.8989 50.5077 47.2054C50.9045 47.6988 51.466 47.953 52.1922 47.953C52.7313 47.953 53.158 47.8259 53.45 47.5717C53.742 47.3176 53.8918 47.0185 53.8918 46.6822C53.8918 46.3607 53.7495 46.0767 53.4725 45.8225C53.1955 45.5683 52.5441 45.3366 51.5184 45.1049C49.8488 44.7311 48.6584 44.2302 47.9396 43.6098C47.2209 42.9893 46.8615 42.197 46.8615 41.2326C46.8615 40.5972 47.0487 39.9992 47.4155 39.4386C47.7824 38.8779 48.3364 38.4294 49.0776 38.108C49.8189 37.7865 50.8296 37.6295 52.1174 37.6295C53.6971 37.6295 54.895 37.9211 55.7261 38.5116C56.5496 39.1022 57.0438 40.0291 57.201 41.3149L53.6148 41.5317C53.5174 40.971 53.3153 40.5599 53.0158 40.3132C52.7088 40.059 52.2821 39.9319 51.7505 39.9319C51.3088 39.9319 50.9718 40.0291 50.7472 40.216C50.5226 40.4029 50.4103 40.6346 50.4103 40.9037C50.4103 41.0981 50.5077 41.27 50.6873 41.4345C50.867 41.5915 51.2863 41.7484 51.9601 41.8905C53.6297 42.2493 54.8276 42.6156 55.5464 42.9819C56.2651 43.3482 56.7967 43.8042 57.1187 44.3499C57.4481 44.8881 57.6128 45.5011 57.6128 46.1738C57.6128 46.9662 57.3957 47.6913 56.9539 48.3566C56.5197 49.0219 55.9058 49.5303 55.1196 49.8741C54.3335 50.218 53.3452 50.3899 52.1473 50.3899C50.051 50.3899 48.591 49.9863 47.7824 49.1789C46.9738 48.3566 46.5171 47.3325 46.4048 46.0916ZM58.1668 37.8388H69.7791V40.8888H65.8859V50.1731H62.0676V40.8888H58.1668V37.8388ZM45.3192 8.56544C43.9491 8.46079 42.564 8.47574 41.1939 8.61029C36.9787 9.01396 32.8833 10.5464 29.4992 13.1702C25.5835 16.1978 22.6112 20.7278 21.4657 26.7305L21.1063 28.6068L19.2345 28.9357C17.4002 29.2572 15.7606 29.6982 14.3231 30.2589C12.9305 30.7971 11.6877 31.4624 10.6021 32.2473C9.73357 32.8752 8.98487 33.5779 8.34848 34.3404C6.3794 36.6951 5.46599 39.6479 5.48845 42.638C5.51092 45.673 6.4992 48.7379 8.32602 51.2571C9.00733 52.1915 9.79347 53.0511 10.6919 53.7987C11.6053 54.5537 12.631 55.1816 13.784 55.6525C14.4354 55.9217 15.1317 56.1459 15.8579 56.3253V61.9244C14.3605 61.6552 12.9829 61.2516 11.6952 60.7208C9.99562 60.0182 8.49073 59.1136 7.16554 58.0073C5.90773 56.9607 4.80714 55.7722 3.87127 54.4789C1.3781 51.0403 0.0304468 46.8391 0.000498886 42.653C-0.029449 38.4219 1.28826 34.2133 4.13331 30.8046C5.05421 29.6982 6.13982 28.6816 7.38266 27.7845C8.82765 26.738 10.4823 25.8559 12.354 25.1308C13.6418 24.6299 15.0194 24.2113 16.4719 23.8749C18.119 17.3415 21.6304 12.3106 26.145 8.8196C30.3677 5.55288 35.4513 3.64667 40.6847 3.14582C43.4325 2.88419 46.2176 3.00379 48.9429 3.51212C48.883 3.7588 48.8306 4.00549 48.8006 4.25965L48.7931 4.3045C48.7407 4.7306 48.7183 5.15669 48.7407 5.59026C48.1642 5.81452 47.6252 6.12101 47.1385 6.49477L47.1161 6.50972C46.3898 7.05542 45.7759 7.7581 45.3192 8.56544ZM84.9328 22.9181C85.3521 23.2993 85.7564 23.6955 86.1532 24.1216C86.9543 24.9813 87.7104 25.9531 88.4217 27.037C90.8176 30.7148 92.0454 35.6261 91.993 40.4328C91.9406 45.1497 90.6678 49.8442 88.0623 53.2978C86.3628 55.5479 84.1841 57.3868 81.5711 58.8445C79.7817 59.8462 77.7677 60.676 75.5741 61.3488V55.5554C76.757 55.1143 77.8576 54.621 78.8683 54.0603C80.8374 52.9614 82.4471 51.6234 83.6525 50.0162C85.5243 47.5269 86.4452 44.006 86.4826 40.3954C86.5275 36.6054 85.5991 32.8005 83.7948 30.0346C83.2782 29.2347 82.7092 28.5171 82.1102 27.8742C81.8781 27.6275 81.646 27.3958 81.4064 27.1715C81.4439 26.7978 81.4588 26.4165 81.4364 26.0353C82.0129 25.811 82.5519 25.5045 83.0386 25.1308L83.061 25.1158C83.8322 24.5253 84.4761 23.7777 84.9328 22.9181ZM65.9458 9.56713C69.3973 10.0381 71.8081 13.2151 71.3364 16.6612C70.8648 20.1074 67.6828 22.5219 64.2313 22.0509C60.7798 21.58 58.3615 18.403 58.8407 14.9568C59.3198 11.5107 62.4943 9.09619 65.9458 9.56713Z" fill="white"/>
</svg>
